<?xml version="1.0" encoding="UTF-8" standalone="no"?>
<!-- Created with Inkscape (http://www.inkscape.org/) -->

<svg
   width="240.33987mm"
   height="41.499855mm"
   viewBox="0 0 240.33987 41.499855"
   version="1.1"
   id="svg5"
   inkscape:version="1.2.2 (b0a8486541, 2022-12-01)"
   sodipodi:docname="Wordmark.svg"
   xmlns:inkscape="http://www.inkscape.org/namespaces/inkscape"
   xmlns:sodipodi="http://sodipodi.sourceforge.net/DTD/sodipodi-0.dtd"
   xmlns="http://www.w3.org/2000/svg"
   xmlns:svg="http://www.w3.org/2000/svg">
  <sodipodi:namedview
     id="namedview7"
     pagecolor="#ffffff"
     bordercolor="#111111"
     borderopacity="1"
     inkscape:showpageshadow="0"
     inkscape:pageopacity="0"
     inkscape:pagecheckerboard="1"
     inkscape:deskcolor="#d1d1d1"
     inkscape:document-units="mm"
     showgrid="false"
     inkscape:zoom="0.93806818"
     inkscape:cx="369.90915"
     inkscape:cy="556.46275"
     inkscape:window-width="3840"
     inkscape:window-height="2003"
     inkscape:window-x="1080"
     inkscape:window-y="112"
     inkscape:window-maximized="1"
     inkscape:current-layer="text234" />
  <defs
     id="defs2">
    <rect
       x="18.118446"
       y="14.446323"
       width="760.03601"
       height="167.30193"
       id="rect236" />
  </defs>
  <g
     inkscape:label="Layer 1"
     inkscape:groupmode="layer"
     id="layer1"
     transform="translate(-1.2454312,-1.0919478)">
    <g
       aria-label="GlyphMosaic"
       transform="matrix(1.1514943,0,0,1.1514943,-21.230748,-26.690461)"
       id="text234"
       style="font-size:40px;line-height:1.25;font-family:FreeSerif;-inkscape-font-specification:'FreeSerif, Normal';word-spacing:0px;white-space:pre;shape-inside:url(#rect236);display:inline">
      <path
         d="m 33.919141,26.007266 q -2.28,0 -4.04,0.84 -1.76,0.8 -2.84,2.08 -1.08,1.28 -1.76,3 -0.68,1.72 -0.96,3.32 -0.24,1.56 -0.24,3.16 0,5.56 2.8,8.8 2.84,3.2 7.72,3.2 2.16,0 3.72,-0.68 1.6,-0.72 1.6,-1.68 v -6.48 q 0,-2.24 -0.64,-2.8 -0.6,-0.6 -2.88,-0.76 v -0.72 h 10.2 v 0.72 q -1.76,0.16 -2.28,0.76 -0.52,0.56 -0.52,2.32 v 8.12 q -1.2,1.04 -4.36,1.92 -3.12,0.88 -5.68,0.88 -1.8,0 -3.6,-0.36 -1.8,-0.36 -3.76,-1.32 -1.96,-0.96 -3.44,-2.4 -1.48,-1.48 -2.48,-3.92 -0.96,-2.44 -0.96,-5.56 0,-6.12 3.84,-10.08 3.88,-3.96 9.88,-3.96 2.32,0 4.56,0.68 2.28,0.64 2.64,0.64 0.64,0 1.12,-0.36 0.48,-0.4 0.68,-0.96 h 0.88 l 0.32,8.44 h -0.92 q -1.28,-3.12 -3.2,-4.96 -1.92,-1.88 -5.4,-1.88 z"
         id="path359" />
      <path
         d="m 47.399146,26.527266 v -0.64 q 3.96,-0.96 6.36,-1.76 l 0.16,0.08 v 23.88 q 0,1.64 0.52,2.16 0.56,0.48 2.48,0.6 v 0.6 h -9.44 v -0.6 q 1.88,-0.16 2.48,-0.72 0.6,-0.56 0.6,-2.16 v -19.08 q 0,-1.4 -0.36,-1.92 -0.36,-0.52 -1.32,-0.52 -0.8,0 -1.48,0.08 z"
         id="path361" />
      <path
         d="m 61.999138,56.807266 q 1.12,0 2.36,-2.48 1.24,-2.48 1.24,-3.64 0,-0.52 -1.76,-4.04 l -5.28,-11.36 q -0.48,-1.04 -2.04,-1.28 v -0.56 h 8.24 v 0.6 q -1.28,0.04 -1.8,0.28 -0.52,0.24 -0.52,0.8 0,0.6 0.4,1.52 l 4.6,10.12 3.88,-11.04 q 0.16,-0.36 0.16,-0.68 0,-1 -1.92,-1 v -0.6 h 5.4 v 0.6 q -0.72,0.08 -1.16,0.48 -0.4,0.36 -0.76,1.32 l -6.16,16.32 q -1.6,4.32 -3.2,6.16 -1.56,1.84 -3.56,1.84 -1.28,0 -2.12,-0.68 -0.84,-0.64 -0.84,-1.64 0,-0.72 0.52,-1.24 0.52,-0.52 1.2,-0.52 0.88,0 1.88,0.36 1,0.36 1.24,0.36 z"
         id="path363" />
      <path
         d="m 75.719164,35.727266 v -0.64 q 2.52,-0.76 5.76,-2.04 l 0.24,0.08 v 3.08 q 2.56,-3.16 5.76,-3.16 2.92,0 4.8,2.4 1.88,2.4 1.88,6.12 0,4.36 -2.44,7.32 -2.4,2.96 -5.96,2.96 -1.28,0 -2.16,-0.36 -0.84,-0.36 -1.88,-1.36 v 6.28 q 0,1.88 0.64,2.4 0.64,0.56 2.88,0.6 v 0.72 h -9.68 v -0.68 q 1.76,-0.16 2.28,-0.68 0.52,-0.52 0.52,-2.08 v -18.72 q 0,-1.4 -0.32,-1.84 -0.32,-0.44 -1.32,-0.44 -0.64,0 -1,0.04 z m 6,2.36 v 9.84 q 0,0.88 1.36,1.76 1.4,0.88 2.8,0.88 2.16,0 3.48,-2.04 1.36,-2.08 1.36,-5.4 0,-3.48 -1.36,-5.56 -1.32,-2.12 -3.56,-2.12 -1.4,0 -2.76,0.88 -1.32,0.88 -1.32,1.76 z"
         id="path365" />
      <path
         d="m 101.07916,37.727266 v 9.64 q 0,2.08 0.48,2.68 0.48,0.6 2.24,0.8 v 0.6 h -8.640005 v -0.6 q 1.72,-0.24 2.12,-0.8 0.44,-0.56 0.44,-2.68 v -18.84 q 0,-1.28 -0.36,-1.68 -0.32,-0.4 -1.48,-0.4 -0.28,0 -0.68,0.08 v -0.64 q 2.84,-0.76 5.680005,-1.76 l 0.2,0.12 v 12.16 q 1.36,-1.8 2.72,-2.56 1.4,-0.8 3.16,-0.8 4.92,0 4.92,6.36 v 7.96 q 0,2.08 0.36,2.64 0.4,0.52 2.04,0.84 v 0.6 h -8.48 v -0.6 q 1.72,-0.16 2.2,-0.8 0.52,-0.64 0.52,-2.68 v -7.92 q 0,-4.24 -3,-4.24 -1.16,0 -2.2,0.6 -1,0.56 -2.24,1.92 z"
         id="path367" />
      <path
         d="m 141.75912,28.527266 -10.24,22.92 h -0.56 l -10.04,-22 v 16.12 q 0,3.04 0.72,4.04 0.72,0.96 3.04,1.08 v 0.76 h -9.4 v -0.76 q 2.48,-0.16 3.16,-1.08 0.72,-0.96 0.72,-4.04 v -16.24 q 0,-2.2 -0.68,-2.8 -0.64,-0.64 -3.12,-0.8 v -0.76 h 7.92 l 9.24,20.2 8.84,-20.2 h 7.96 v 0.76 q -2.24,0.2 -2.88,0.84 -0.6,0.64 -0.6,2.76 v 17.76 q 0,2.12 0.64,2.8 0.64,0.64 2.84,0.8 v 0.76 h -11.2 v -0.76 q 2.36,-0.16 3,-0.84 0.64,-0.72 0.64,-3.2 z"
         id="path369" />
      <path
         d="m 159.75914,33.047266 q 3.84,0 6.32,2.56 2.48,2.56 2.48,6.48 0,4.16 -2.56,6.96 -2.56,2.8 -6.32,2.8 -3.76,0 -6.28,-2.68 -2.48,-2.72 -2.48,-6.76 0,-4.12 2.44,-6.72 2.48,-2.64 6.4,-2.64 z m -5.24,7.4 q 0,4.28 1.56,7.28 1.56,3 4.08,3 2.24,0 3.52,-1.92 1.28,-1.92 1.28,-5.32 0,-4.12 -1.6,-6.72 -1.6,-2.6 -4.12,-2.6 -2.12,0 -3.44,1.72 -1.28,1.72 -1.28,4.56 z"
         id="path371" />
      <path
         d="m 180.27911,33.847266 q 0.04,0 0.64,-0.4 h 0.44 l 0.16,5.44 h -0.6 q -0.68,-2.68 -1.68,-3.8 -1,-1.12 -2.72,-1.12 -1.36,0 -2.24,0.76 -0.84,0.76 -0.84,1.96 0,1.72 1.72,2.72 l 4.32,2.56 q 1.8,1.08 2.56,2.2 0.8,1.08 0.8,2.56 0,2.08 -1.68,3.6 -1.64,1.52 -3.96,1.52 -1,0 -2.68,-0.36 -1.68,-0.36 -2.08,-0.36 -0.6,0 -0.92,0.48 h -0.52 v -6.24 h 0.64 q 0.64,2.8 1.52,3.96 1.28,1.64 3.56,1.64 1.52,0 2.4,-0.76 0.92,-0.8 0.92,-2.12 0,-1.8 -2.08,-3 l -2.32,-1.32 q -2.56,-1.44 -3.64,-2.76 -1.04,-1.32 -1.04,-3 0,-2.16 1.52,-3.52 1.56,-1.4 3.92,-1.4 1.32,0 2.48,0.4 1.16,0.36 1.4,0.36 z"
         id="path373" />
      <path
         d="m 185.23914,47.567266 q 0,-0.72 0.16,-1.32 0.16,-0.64 0.56,-1.16 0.4,-0.56 0.76,-1 0.36,-0.44 1.08,-0.88 0.72,-0.48 1.2,-0.76 0.48,-0.32 1.44,-0.72 1,-0.44 1.52,-0.64 0.52,-0.24 1.64,-0.68 1.12,-0.44 1.64,-0.64 v -2.44 q 0,-3.32 -3.04,-3.32 -1.2,0 -2.04,0.6 -0.84,0.56 -0.84,1.36 0,0.32 0.08,0.88 0.12,0.56 0.12,0.72 0,0.68 -0.56,1.2 -0.52,0.48 -1.24,0.48 -0.68,0 -1.2,-0.52 -0.52,-0.52 -0.52,-1.2 0,-1.88 1.92,-3.16 1.96,-1.32 4.8,-1.32 3.28,0 4.52,1.6 1.24,1.56 1.24,4.8 v 7.8 q 0,1.32 0.24,1.84 0.28,0.48 0.96,0.48 0.84,0 1.76,-0.76 v 1.04 q -1.04,1.16 -1.84,1.6 -0.76,0.4 -1.76,0.4 -1.24,0 -1.84,-0.68 -0.56,-0.68 -0.72,-2.24 -3.44,2.92 -5.84,2.92 -1.84,0 -3.04,-1.2 -1.16,-1.2 -1.16,-3.08 z m 10,-1.04 v -5.8 q -3.6,1.32 -5.04,2.56 -1.44,1.24 -1.44,3 0,1.64 0.8,2.44 0.8,0.8 1.72,0.8 1.36,0 2.92,-0.92 0.64,-0.36 0.84,-0.76 0.2,-0.4 0.2,-1.32 z"
         id="path375" />
      <path
         d="m 203.91915,35.727266 q -0.88,0 -1.68,0.12 v -0.6 q 2.8,-0.8 6.2,-2.2 l 0.16,0.12 v 14.2 q 0,2.16 0.48,2.76 0.52,0.56 2.48,0.72 v 0.6 h -9.48 v -0.6 q 2.08,-0.12 2.6,-0.72 0.56,-0.6 0.56,-2.76 v -9.28 q 0,-1.32 -0.32,-1.84 -0.28,-0.52 -1,-0.52 z m 2.64,-11.6 q 0.88,0 1.48,0.6 0.6,0.6 0.6,1.44 0,0.88 -0.6,1.48 -0.6,0.56 -1.48,0.56 -0.84,0 -1.44,-0.6 -0.56,-0.6 -0.56,-1.44 0,-0.84 0.6,-1.44 0.6,-0.6 1.4,-0.6 z"
         id="path377" />
      <path
         d="m 212.75912,42.927266 q 0,-4.44 2.6,-7.16 2.64,-2.72 6.16,-2.72 2.52,0 4.32,1.24 1.84,1.2 1.84,2.88 0,0.68 -0.56,1.2 -0.56,0.48 -1.36,0.48 -1.36,0 -1.88,-1.84 l -0.24,-0.88 q -0.32,-1.12 -0.8,-1.52 -0.48,-0.4 -1.56,-0.4 -2.44,0 -3.96,1.96 -1.48,1.92 -1.48,5 0,3.44 1.72,5.64 1.76,2.16 4.48,2.16 1.72,0 2.96,-0.84 1.24,-0.84 2.68,-2.92 l 0.56,0.36 q -0.4,0.8 -0.72,1.32 -0.28,0.52 -1.08,1.56 -0.76,1.04 -1.52,1.68 -0.76,0.64 -2,1.2 -1.24,0.52 -2.56,0.52 -3.32,0 -5.48,-2.48 -2.12,-2.52 -2.12,-6.44 z"
         id="path379" />
    </g>
  </g>
</svg>
