<?xml version="1.0" encoding="us-ascii" standalone="no"?><svg xmlns="http://www.w3.org/2000/svg" xmlns:xlink="http://www.w3.org/1999/xlink" contentStyleType="text/css" height="171px" preserveAspectRatio="none" style="width:208px;height:171px;background:#FFFFFF;" version="1.1" viewBox="0 0 208 171" width="208px" zoomAndPan="magnify"><defs/><g><!--cluster Host System--><g id="cluster_Host System"><polygon fill="none" points="16,16,26,6,191,6,191,144,181,154,16,154,16,16" style="stroke:#181818;stroke-width:1.0;"/><line style="stroke:#181818;stroke-width:1.0;" x1="181" x2="191" y1="16" y2="6"/><line style="stroke:#181818;stroke-width:1.0;" x1="16" x2="181" y1="16" y2="16"/><line style="stroke:#181818;stroke-width:1.0;" x1="181" x2="181" y1="16" y2="154"/><text fill="#000000" font-family="sans-serif" font-size="14" font-weight="bold" lengthAdjust="spacing" textLength="99" x="50" y="31.9951">Host System</text></g><!--entity gm--><g id="elem_gm"><rect fill="#F1F1F1" height="36.2969" rx="2.5" ry="2.5" style="stroke:#181818;stroke-width:0.5;" width="107" x="50" y="46"/><rect fill="#F1F1F1" height="5" style="stroke:#181818;stroke-width:0.5;" width="10" x="45" y="51"/><rect fill="#F1F1F1" height="5" style="stroke:#181818;stroke-width:0.5;" width="10" x="45" y="72.2969"/><text fill="#000000" font-family="sans-serif" font-size="14" lengthAdjust="spacing" textLength="87" x="60" y="68.9951">GlyphMosaic</text></g><!--entity fs--><g id="elem_fs"><rect fill="#F1F1F1" height="36.2969" rx="2.5" ry="2.5" style="stroke:#181818;stroke-width:0.5;" width="98" x="54.5" y="102"/><rect fill="#F1F1F1" height="5" style="stroke:#181818;stroke-width:0.5;" width="10" x="49.5" y="107"/><rect fill="#F1F1F1" height="5" style="stroke:#181818;stroke-width:0.5;" width="10" x="49.5" y="128.2969"/><text fill="#000000" font-family="sans-serif" font-size="14" lengthAdjust="spacing" textLength="78" x="64.5" y="124.9951">File System</text></g><!--reverse link fs to gm--><g id="link_fs_gm"><path d="M103.5,95.26 C103.5,90.91 103.5,86.57 103.5,82.22 " fill="none" id="fs-backto-gm" style="stroke:#181818;stroke-width:1.0;"/><polygon fill="#181818" points="103.5,100.11,107.5,91.11,103.5,95.11,99.5,91.11,103.5,100.11" style="stroke:#181818;stroke-width:1.0;"/></g><!--SRC=[JOon3e9044Jx_Oe9FOdu0PPgOqLfB2wmm8MxsyljMX3ZlmkI6AURbpUZiq_P5HUHf6VbZEE1z0UBI_C66mey64nG_3WPUb-uCo_fp-qaPacShBKbC9unD4JRAwghgA5Tr3XMU17Mt2zXoTDDrFdk0QSOuyxFVXtlxfSFIc-YCQ8EzMbh7m00]--></g></svg>